<svg id="SvgjsSvg1015" width="288" height="288" xmlns="http://www.w3.org/2000/svg" version="1.1" xmlns:xlink="http://www.w3.org/1999/xlink" xmlns:svgjs="http://svgjs.com/svgjs"><defs id="SvgjsDefs1016"></defs><g id="SvgjsG1017"><svg xmlns="http://www.w3.org/2000/svg" enable-background="new 0 0 32 32" viewBox="0 0 32 32" width="288" height="288"><path fill="none" stroke="#ffffff" stroke-linecap="round" stroke-linejoin="round" stroke-miterlimit="10" stroke-width="2" d="M27.8 23.2l-1.1-1.7c-1.9-2.8-2.9-6.1-2.9-9.5 0-3.6-2.4-6.5-5.6-7.5C17.9 3.6 17 3 16 3s-1.9.6-2.2 1.5c-3.2 1-5.6 3.9-5.6 7.5 0 3.4-1 6.7-2.9 9.5l-1.1 1.7C3.7 24 4.2 25 5.2 25h21.6C27.8 25 28.3 24 27.8 23.2zM20 25c0 2.2-1.8 4-4 4s-4-1.8-4-4" class="colorStroke000 svgStroke"></path></svg></g></svg>